<?xml version="1.0" standalone="no"?><!DOCTYPE svg PUBLIC "-//W3C//DTD SVG 1.1//EN" "http://www.w3.org/Graphics/SVG/1.1/DTD/svg11.dtd"><svg t="1682206908829" class="icon" viewBox="0 0 1113 1024" version="1.1" xmlns="http://www.w3.org/2000/svg" p-id="862" xmlns:xlink="http://www.w3.org/1999/xlink" width="217.3828125" height="200"><path d="M964.982551 785.124839c-81.238296 0-147.266017-65.459794-147.266017-145.90793 0-80.448136 66.052414-145.90793 147.266017-145.90793 81.238296 0 147.290709 65.484486 147.290709 145.90793C1112.27326 719.665045 1046.220847 785.124839 964.982551 785.124839L964.982551 785.124839 964.982551 785.124839zM964.982551 541.088949c-54.61979 0-99.090967 44.026712-99.090967 98.12796 0 54.12594 44.471176 98.12796 99.090967 98.12796 54.61979 0 99.041582-44.002019 99.041582-98.12796C1063.99944 585.115661 1019.602341 541.088949 964.982551 541.088949L964.982551 541.088949 964.982551 541.088949zM427.72333 1023.999997c-235.862675 0-427.72333-186.724617-427.72333-416.191937l0-147.759867c0-13.210483 10.815311-23.902331 24.124564-23.902331l807.172841 0c13.333945 0 24.149256 10.691849 24.149256 23.902331l0 147.759867C855.446661 837.27538 663.561313 1023.999997 427.72333 1023.999997L427.72333 1023.999997 427.72333 1023.999997zM48.249128 483.950525l0 123.857535c0 203.145124 170.205341 368.411967 379.44951 368.411967 209.268862 0 379.474203-165.266843 379.474203-368.411967l0-123.857535L48.249128 483.950525 48.249128 483.950525 48.249128 483.950525zM251.221404 407.823575c-5.358271 0-10.667156-1.753167-15.185882-5.358271-3.061869-2.444557-75.13925-61.06453-74.077473-130.820818 0.49385-34.00156 17.383514-63.731319 50.224527-88.473196 24.939416-18.840371 37.162199-38.248669 36.297962-57.755737-1.926014-42.866165-61.039838-80.941986-61.632458-81.337066-11.259776-7.03736-14.642647-21.778777-7.53121-32.939783 7.111437-11.136313 22.00101-14.494492 33.236093-7.457132 3.333486 2.049477 81.040756 51.360381 84.077932 119.659812 1.629704 36.075729-16.988434 69.015513-55.21241 97.856342-20.717 15.630347-30.939691 32.371856-31.236001 51.212226-0.567927 38.816596 40.396915 80.275288 56.249495 92.967229 10.296769 8.271985 11.951166 23.309712 3.531026 33.581788C265.222047 404.786399 258.234072 407.823575 251.221404 407.823575L251.221404 407.823575 251.221404 407.823575zM454.786301 407.823575c-5.358271 0-10.716541-1.753167-15.185882-5.358271-3.037176-2.444557-75.13925-61.06453-74.126858-130.820818 0.518542-34.00156 17.432899-63.731319 50.273912-88.473196 24.939416-18.840371 37.137507-38.248669 36.248577-57.755737-1.901322-42.866165-61.039838-80.941986-61.607765-81.337066-11.210391-7.03736-14.642647-21.778777-7.53121-32.939783 7.13613-11.136313 22.025702-14.494492 33.260785-7.457132 3.308794 2.049477 81.040756 51.360381 84.05324 119.659812 1.629704 36.075729-16.988434 69.015513-55.237103 97.856342-20.717 15.630347-30.939691 32.371856-31.236001 51.212226-0.59262 38.816596 40.396915 80.275288 56.249495 92.967229 10.321461 8.271985 11.951166 23.309712 3.506334 33.581788C468.762251 404.786399 461.798968 407.823575 454.786301 407.823575L454.786301 407.823575 454.786301 407.823575zM658.301812 407.823575c-5.308886 0-10.691849-1.753167-15.16119-5.358271-3.086561-2.444557-75.13925-61.06453-74.102166-130.820818 0.518542-34.00156 17.408206-63.731319 50.249219-88.473196 24.939416-18.840371 37.137507-38.248669 36.248577-57.755737-1.876629-42.866165-61.015145-80.941986-61.607765-81.337066-11.235083-7.03736-14.642647-21.778777-7.53121-32.939783 7.111437-11.136313 22.025702-14.494492 33.260785-7.457132 3.284101 2.049477 81.016063 51.360381 84.028547 119.659812 1.605012 36.075729-16.988434 69.015513-55.237103 97.856342-20.741693 15.630347-30.939691 32.371856-31.236001 51.212226-0.567927 38.816596 40.396915 80.275288 56.224802 92.967229 10.321461 8.271985 11.951166 23.309712 3.580411 33.581788C672.327147 404.786399 665.339172 407.823575 658.301812 407.823575L658.301812 407.823575 658.301812 407.823575z" fill="#7878ff" p-id="863"></path></svg>